<svg width="23" height="19" viewBox="0 0 23 19" fill="none" xmlns="http://www.w3.org/2000/svg">
<path d="M12.9797 8.2777C12.1947 7.62951 11.1302 7.26538 10.0203 7.26538C8.91044 7.26538 7.84598 7.62951 7.061 8.2777L4.10071 10.7224C3.31572 11.3708 2.87472 12.2504 2.87472 13.1674C2.87472 14.0845 3.31572 14.964 4.10071 15.6125C4.8857 16.261 5.95038 16.6253 7.06052 16.6253C8.17067 16.6253 9.23535 16.261 10.0203 15.6125L11.5 14.3902" stroke="#FCFCFC" stroke-width="1.66667" stroke-linecap="round" stroke-linejoin="round"/>
<path d="M10.0203 10.7223C10.8053 11.3705 11.8698 11.7346 12.9797 11.7346C14.0896 11.7346 15.154 11.3705 15.939 10.7223L18.8993 8.27766C19.6843 7.62919 20.1253 6.74967 20.1253 5.8326C20.1253 4.91552 19.6843 4.036 18.8993 3.38753C18.1143 2.73906 17.0496 2.37476 15.9395 2.37476C14.8293 2.37476 13.7647 2.73906 12.9797 3.38753L11.5 4.60987" stroke="#FCFCFC" stroke-width="1.66667" stroke-linecap="round" stroke-linejoin="round"/>
</svg>
