<svg width="22" height="19" viewBox="0 0 22 19" fill="none" xmlns="http://www.w3.org/2000/svg">
<g clip-path="url(#clip0_1438_194)">
<path fill-rule="evenodd" clip-rule="evenodd" d="M11 0C4.9225 0 0 4.25125 0 9.5C0 13.7037 3.14875 17.2544 7.52125 18.5131C8.07125 18.5962 8.2775 18.3112 8.2775 18.0619C8.2775 17.8362 8.26375 17.0881 8.26375 16.2925C5.5 16.7319 4.785 15.7106 4.565 15.1762C4.44125 14.9031 3.905 14.06 3.4375 13.8344C3.0525 13.6562 2.5025 13.2169 3.42375 13.205C4.29 13.1931 4.90875 13.8937 5.115 14.1787C6.105 15.6156 7.68625 15.2119 8.31875 14.9625C8.415 14.345 8.70375 13.9294 9.02 13.6919C6.5725 13.4544 4.015 12.635 4.015 9.00125C4.015 7.96812 4.44125 7.11312 5.1425 6.44813C5.0325 6.21063 4.6475 5.23687 5.2525 3.93062C5.2525 3.93062 6.17375 3.68125 8.2775 4.90437C9.1575 4.69062 10.0925 4.58375 11.0275 4.58375C11.9625 4.58375 12.8975 4.69062 13.7775 4.90437C15.8813 3.66937 16.8025 3.93062 16.8025 3.93062C17.4075 5.23687 17.0225 6.21063 16.9125 6.44813C17.6138 7.11312 18.04 7.95625 18.04 9.00125C18.04 12.6469 15.4688 13.4544 13.0213 13.6919C13.42 13.9887 13.7638 14.5587 13.7638 15.4494C13.7638 16.72 13.75 17.7412 13.75 18.0619C13.75 18.3112 13.9563 18.6081 14.5063 18.5131C16.6899 17.8764 18.5874 16.6643 19.9317 15.0475C21.276 13.4307 21.9993 11.4905 22 9.5C22 4.25125 17.0775 0 11 0Z" fill="white"/>
</g>
<defs>
<clipPath id="clip0_1438_194">
<rect width="22" height="19" fill="white"/>
</clipPath>
</defs>
</svg>
